<?xml version="1.0" ?>
<!DOCTYPE svg  PUBLIC '-//W3C//DTD SVG 1.1//EN'  'http://www.w3.org/Graphics/SVG/1.1/DTD/svg11.dtd'>
<svg height="32px" id="Layer_1" style="enable-background:new 0 0 32 32;" version="1.1" viewBox="0 0 32 32" width="32px"
	xml:space="preserve"
	xmlns="http://www.w3.org/2000/svg"
	xmlns:xlink="http://www.w3.org/1999/xlink">

	<g transform="translate(336 384)">
		<path d="M-308.25-362.363c-2.859-2.859-5.732-5.735-8.604-8.603l5.723-7.357c0.406,0.332,1.002,0.313,1.381-0.063   c0.402-0.403,0.402-1.059,0-1.461c-0.402-0.403-1.057-0.403-1.461,0c-0.379,0.377-0.396,0.975-0.064,1.381l-7.357,5.723   c-2.639-2.639-5.27-5.271-7.876-7.877c-0.195-0.195-0.408-0.27-0.615-0.243c-0.114,0.009-0.229,0.043-0.34,0.125   c-0.097,0.065-0.174,0.148-0.235,0.246c-1.449,1.699-1.353,3.991-0.779,6.049c0.914,3.284,3.127,6.189,5.479,8.582   c2.313,2.35,5.135,4.324,8.272,5.383c2.154,0.727,4.727,0.836,6.494-0.795C-307.93-361.564-307.959-362.074-308.25-362.363   L-308.25-362.363z"
			style="fill:#fff;"/>

		<path d="M-321.311-362.33c-0.948-0.719-1.866-1.521-2.737-2.408c-0.976-0.99-1.83-1.969-2.567-2.936   c-1.771,3.881-3.539,7.825-5.31,11.708c-0.158,0.346,0.022,0.836,0.444,0.836c3.443,0,6.888,0,10.33,0   c0.088,0,0.162-0.078,0.228-0.109c0.183-0.059,0.313-0.244,0.289-0.498C-320.86-357.926-321.085-360.143-321.311-362.33   L-321.311-362.33z"
			style="fill:#fff;"/>
	</g>
</svg>